<svg width="50" height="53" viewBox="0 0 50 53" fill="none" xmlns="http://www.w3.org/2000/svg">
<g clip-path="url(#clip0_11_192)">
<rect width="50" height="53" fill="white"/>
<path d="M26.5 53C23.02 53 19.574 52.3146 16.3589 50.9828C13.1438 49.6511 10.2224 47.6991 7.76167 45.2383C5.30092 42.7776 3.34894 39.8562 2.01719 36.6411C0.685442 33.426 -1.46259e-06 29.98 -1.15835e-06 26.5C-8.54118e-07 23.02 0.685442 19.574 2.01719 16.3589C3.34894 13.1438 5.30092 10.2224 7.76167 7.76167C10.2224 5.30092 13.1438 3.34894 16.3589 2.01719C19.574 0.685442 23.02 -4.56351e-07 26.5 0L26.5 26.5L26.5 53Z" fill="url(#paint0_linear_11_192)"/>
<path d="M48 43C45.7675 43 43.5569 42.5732 41.4944 41.744C39.4318 40.9148 37.5578 39.6994 35.9792 38.1673C34.4006 36.6351 33.1484 34.8161 32.294 32.8143C31.4397 30.8124 31 28.6668 31 26.5C31 24.3332 31.4397 22.1876 32.294 20.1857C33.1484 18.1838 34.4006 16.3649 35.9792 14.8327C37.5578 13.3006 39.4318 12.0852 41.4944 11.256C43.5569 10.4268 45.7675 10 48 10L48 26.5L48 43Z" fill="url(#paint1_linear_11_192)"/>
</g>
<defs>
<linearGradient id="paint0_linear_11_192" x1="26.5" y1="-1.15835e-06" x2="26.5" y2="53" gradientUnits="userSpaceOnUse">
<stop stop-color="#1653EC"/>
<stop offset="1" stop-color="#3E75FF"/>
</linearGradient>
<linearGradient id="paint1_linear_11_192" x1="48" y1="10" x2="48" y2="43" gradientUnits="userSpaceOnUse">
<stop stop-color="#1653EC"/>
<stop offset="1" stop-color="#3E75FF"/>
</linearGradient>
<clipPath id="clip0_11_192">
<rect width="50" height="53" fill="white"/>
</clipPath>
</defs>
</svg>
