<svg width="254" height="68" viewBox="0 0 254 68" fill="none" xmlns="http://www.w3.org/2000/svg">
<path d="M69.2924 38.4323C61.8709 38.4323 56.3588 32.7041 56.3588 25.4627V25.3907C56.3588 18.2214 61.7628 12.349 69.5086 12.349C74.2281 12.349 77.1462 13.9342 79.4519 16.2399L75.9213 20.3109C73.9399 18.5456 72.0304 17.4648 69.4726 17.4648C65.2214 17.4648 62.1591 20.9954 62.1591 25.3186V25.3907C62.1591 29.7139 65.1494 33.3165 69.4726 33.3165C72.3547 33.3165 74.12 32.1997 76.1015 30.3623L79.6321 33.929C77.0382 36.703 74.192 38.4323 69.2924 38.4323ZM83.4971 38V11.7005H88.9731V21.4277C90.234 19.8065 91.8913 18.3294 94.6293 18.3294C98.8084 18.3294 101.186 21.0314 101.186 25.4987V38H95.7101V27.228C95.7101 24.6341 94.5212 23.3011 92.3956 23.3011C90.2701 23.3011 88.9731 24.6341 88.9731 27.228V38H83.4971ZM105.943 38V18.6897H111.419V22.5806C112.536 19.9506 114.302 18.1853 117.58 18.3294V24.0577H117.292C113.653 24.0577 111.419 26.2193 111.419 30.8667V38H105.943ZM129.949 38.4323C124.004 38.4323 119.537 34.0371 119.537 28.4529V28.3809C119.537 22.8328 124.004 18.3294 130.021 18.3294C135.965 18.3294 140.432 22.7247 140.432 28.3088V28.3809C140.432 33.929 135.965 38.4323 129.949 38.4323ZM130.021 33.7128C133.155 33.7128 135.028 31.3351 135.028 28.4529V28.3809C135.028 25.5348 132.975 23.0489 129.949 23.0489C126.814 23.0489 124.941 25.4267 124.941 28.3088V28.3809C124.941 31.227 126.994 33.7128 130.021 33.7128ZM144.398 38V18.6897H149.874V21.4277C151.135 19.8065 152.792 18.3294 155.53 18.3294C159.709 18.3294 162.087 21.0314 162.087 25.4987V38H156.611V27.228C156.611 24.6341 155.422 23.3011 153.296 23.3011C151.171 23.3011 149.874 24.6341 149.874 27.228V38H144.398ZM166.952 16.5641V11.7005H172.716V16.5641H166.952ZM167.096 38V18.6897H172.572V38H167.096ZM186.83 38.4323C181.03 38.4323 176.779 33.929 176.779 28.4529V28.3809C176.779 22.8688 180.994 18.3294 186.902 18.3294C190.541 18.3294 192.774 19.5543 194.612 21.5718L191.261 25.1745C190 23.8775 188.847 23.0489 186.866 23.0489C184.128 23.0489 182.183 25.4267 182.183 28.3088V28.3809C182.183 31.3711 184.092 33.7128 187.082 33.7128C188.92 33.7128 190.18 32.9202 191.513 31.6593L194.72 34.9017C192.846 36.9552 190.685 38.4323 186.83 38.4323ZM198.549 38V11.7005H204.025V38H198.549ZM218.319 38.4323C212.519 38.4323 208.232 34.3613 208.232 28.4529V28.3809C208.232 22.8688 212.158 18.3294 217.779 18.3294C224.227 18.3294 227.182 23.3371 227.182 28.8132C227.182 29.2455 227.146 29.7139 227.109 30.2543H213.672C214.212 32.7401 215.941 34.0371 218.391 34.0371C220.228 34.0371 221.525 33.4606 223.074 32.0556L226.209 34.8297C224.371 37.0993 221.814 38.4323 218.319 38.4323ZM213.599 26.8317H221.85C221.525 24.3819 220.084 22.7247 217.779 22.7247C215.473 22.7247 214.032 24.3459 213.599 26.8317ZM238.036 38.3603C235.298 38.3603 232.343 37.4596 229.75 35.4421L232.091 31.8394C234.217 33.3886 236.342 34.1451 238.18 34.1451C239.765 34.1451 240.486 33.5687 240.486 32.7041V32.632C240.486 31.4431 238.612 31.0829 236.487 30.3984C233.785 29.6418 230.722 28.3449 230.722 24.5981V24.526C230.722 20.5991 233.893 18.4015 237.784 18.4015C240.233 18.4015 242.863 19.2301 244.989 20.6351L242.899 24.4179C240.99 23.3011 239.08 22.6166 237.675 22.6166C236.342 22.6166 235.658 23.193 235.658 23.9496V24.0217C235.658 25.0304 237.495 25.6789 239.585 26.3274C242.287 27.192 245.421 28.525 245.421 32.0556V32.1277C245.421 36.4148 242.215 38.3603 238.036 38.3603Z" fill="black"/>
<path d="M63.2309 60.1656C60.4436 60.1656 58.3877 57.9717 58.3877 55.1982V55.1706C58.3877 52.4386 60.4436 50.1757 63.2723 50.1757C65.0246 50.1757 66.0871 50.7828 67.0392 51.7073L66.2941 52.5076C65.4662 51.7349 64.5831 51.183 63.2585 51.183C61.1197 51.183 59.5192 52.9215 59.5192 55.143V55.1706C59.5192 57.4059 61.1197 59.1583 63.2585 59.1583C64.5831 59.1583 65.4524 58.6478 66.3768 57.7647L67.0944 58.4684C66.1009 59.4895 64.9694 60.1656 63.2309 60.1656ZM71.9985 60.1656C69.8598 60.1656 68.3006 58.4822 68.3006 56.4677V56.4401C68.3006 54.4117 69.8598 52.7146 72.0261 52.7146C74.1786 52.7146 75.7378 54.3979 75.7378 56.4125V56.4401C75.7378 58.4684 74.151 60.1656 71.9985 60.1656ZM72.0261 59.2135C73.5715 59.2135 74.6478 57.9579 74.6478 56.4677V56.4401C74.6478 54.9085 73.5025 53.6528 71.9985 53.6528C70.4531 53.6528 69.3907 54.9085 69.3907 56.4125V56.4401C69.3907 57.9717 70.5221 59.2135 72.0261 59.2135ZM77.6624 60V52.8663H78.7249V54.7291C79.2492 53.5425 80.2841 52.7008 81.6363 52.7422V53.8874H81.5535C79.9943 53.8874 78.7249 55.0051 78.7249 57.1576V60H77.6624ZM83.2545 62.2077V52.8663H84.3169V54.3014C84.9103 53.4597 85.7244 52.7146 87.049 52.7146C88.7599 52.7146 90.4571 54.0668 90.4571 56.4125V56.4401C90.4571 58.7582 88.7737 60.1518 87.049 60.1518C85.7244 60.1518 84.8689 59.4481 84.3169 58.634V62.2077H83.2545ZM86.8558 59.1997C88.2356 59.1997 89.3671 58.1786 89.3671 56.4539V56.4263C89.3671 54.7291 88.2218 53.6666 86.8558 53.6666C85.5312 53.6666 84.2755 54.7981 84.2755 56.4125V56.4401C84.2755 58.0959 85.5312 59.1997 86.8558 59.1997ZM95.6737 60.1656C93.535 60.1656 91.9758 58.4822 91.9758 56.4677V56.4401C91.9758 54.4117 93.535 52.7146 95.7013 52.7146C97.8538 52.7146 99.413 54.3979 99.413 56.4125V56.4401C99.413 58.4684 97.8262 60.1656 95.6737 60.1656ZM95.7013 59.2135C97.2467 59.2135 98.3229 57.9579 98.3229 56.4677V56.4401C98.3229 54.9085 97.1777 53.6528 95.6737 53.6528C94.1283 53.6528 93.0658 54.9085 93.0658 56.4125V56.4401C93.0658 57.9717 94.1973 59.2135 95.7013 59.2135ZM101.338 60V52.8663H102.4V54.7291C102.924 53.5425 103.959 52.7008 105.311 52.7422V53.8874H105.229C103.67 53.8874 102.4 55.0051 102.4 57.1576V60H101.338ZM108.704 60.1518C107.38 60.1518 106.041 59.4067 106.041 57.9303V57.9027C106.041 56.4125 107.283 55.5984 109.091 55.5984C110.015 55.5984 110.636 55.7226 111.284 55.9019V55.6536C111.284 54.3703 110.498 53.708 109.16 53.708C108.318 53.708 107.656 53.915 106.993 54.2324L106.676 53.3631C107.462 52.9905 108.221 52.7698 109.27 52.7698C110.277 52.7698 111.05 53.0319 111.574 53.5563C112.057 54.0392 112.306 54.7429 112.306 55.6398V60H111.284V58.9237C110.788 59.5723 109.974 60.1518 108.704 60.1518ZM108.911 59.3101C110.236 59.3101 111.298 58.5098 111.298 57.3783V56.6884C110.76 56.5367 110.084 56.3849 109.201 56.3849C107.863 56.3849 107.117 56.9644 107.117 57.8613V57.8889C107.117 58.7858 107.959 59.3101 108.911 59.3101ZM116.89 60.1242C115.731 60.1242 114.875 59.5585 114.875 58.1097V53.8046H113.882V52.8663H114.875V50.7138H115.937V52.8663H118.2V53.8046H115.937V57.9717C115.937 58.8548 116.42 59.1583 117.138 59.1583C117.51 59.1583 117.8 59.0893 118.173 58.9099V59.8206C117.8 60.0276 117.4 60.1242 116.89 60.1242ZM122.997 60.1656C121.052 60.1656 119.437 58.6616 119.437 56.4539V56.4263C119.437 54.3703 120.872 52.7146 122.859 52.7146C124.97 52.7146 126.185 54.3979 126.185 56.4815C126.185 56.6332 126.185 56.7022 126.171 56.8264H120.514C120.665 58.3718 121.755 59.2411 123.025 59.2411C124.018 59.2411 124.681 58.841 125.274 58.2338L125.936 58.8272C125.219 59.6412 124.363 60.1656 122.997 60.1656ZM120.514 56.0399H125.108C124.998 54.7567 124.267 53.6114 122.832 53.6114C121.576 53.6114 120.665 54.6601 120.514 56.0399ZM132.361 60V50.3413H133.451V56.1089L138.998 50.3413H140.419L136.266 54.5635L140.584 60H139.218L135.507 55.3224L133.451 57.4059V60H132.361ZM142.099 60V52.8663H143.161V54.1082C143.644 53.3355 144.375 52.7146 145.604 52.7146C147.315 52.7146 148.336 53.8736 148.336 55.5708V60H147.273V55.833C147.273 54.5083 146.569 53.6804 145.3 53.6804C144.072 53.6804 143.161 54.5773 143.161 55.9157V60H142.099ZM153.858 60.1656C151.719 60.1656 150.16 58.4822 150.16 56.4677V56.4401C150.16 54.4117 151.719 52.7146 153.885 52.7146C156.038 52.7146 157.597 54.3979 157.597 56.4125V56.4401C157.597 58.4684 156.01 60.1656 153.858 60.1656ZM153.885 59.2135C155.431 59.2135 156.507 57.9579 156.507 56.4677V56.4401C156.507 54.9085 155.362 53.6528 153.858 53.6528C152.312 53.6528 151.25 54.9085 151.25 56.4125V56.4401C151.25 57.9717 152.381 59.2135 153.885 59.2135ZM161.062 60.0552L158.564 52.8663H159.696L161.572 58.5926L163.49 52.8388H164.373L166.305 58.5926L168.182 52.8663H169.285L166.774 60.0552H165.85L163.932 54.4255L162 60.0552H161.062ZM171.153 60V49.9273H172.215V60H171.153ZM177.799 60.1656C175.854 60.1656 174.239 58.6616 174.239 56.4539V56.4263C174.239 54.3703 175.674 52.7146 177.661 52.7146C179.772 52.7146 180.987 54.3979 180.987 56.4815C180.987 56.6332 180.987 56.7022 180.973 56.8264H175.316C175.467 58.3718 176.557 59.2411 177.827 59.2411C178.82 59.2411 179.483 58.841 180.076 58.2338L180.738 58.8272C180.021 59.6412 179.165 60.1656 177.799 60.1656ZM175.316 56.0399H179.91C179.8 54.7567 179.069 53.6114 177.634 53.6114C176.378 53.6114 175.467 54.6601 175.316 56.0399ZM185.841 60.1518C184.13 60.1518 182.433 58.7996 182.433 56.4539V56.4263C182.433 54.1082 184.13 52.7146 185.841 52.7146C187.165 52.7146 188.021 53.4183 188.573 54.2324V49.9273H189.635V60H188.573V58.565C187.979 59.4205 187.165 60.1518 185.841 60.1518ZM186.034 59.1997C187.359 59.1997 188.614 58.0821 188.614 56.4401V56.4125C188.614 54.7705 187.359 53.6666 186.034 53.6666C184.654 53.6666 183.523 54.6877 183.523 56.4125V56.4401C183.523 58.1372 184.668 59.1997 186.034 59.1997ZM195.169 62.2353C193.969 62.2353 192.879 61.9041 191.927 61.2418L192.409 60.4139C193.237 61.0073 194.12 61.3246 195.155 61.3246C196.742 61.3246 197.749 60.4553 197.749 58.7858V57.9441C197.128 58.772 196.259 59.4481 194.948 59.4481C193.237 59.4481 191.595 58.151 191.595 56.1089V56.0813C191.595 53.9978 193.237 52.7146 194.948 52.7146C196.287 52.7146 197.142 53.3769 197.736 54.1496V52.8663H198.798V58.7582C198.798 59.862 198.481 60.6899 197.887 61.2832C197.239 61.9317 196.314 62.2353 195.169 62.2353ZM195.155 58.5098C196.508 58.5098 197.777 57.5301 197.777 56.0951V56.0675C197.777 54.6049 196.508 53.6528 195.155 53.6528C193.789 53.6528 192.685 54.5911 192.685 56.0537V56.0813C192.685 57.5163 193.831 58.5098 195.155 58.5098ZM204.291 60.1656C202.345 60.1656 200.731 58.6616 200.731 56.4539V56.4263C200.731 54.3703 202.166 52.7146 204.153 52.7146C206.264 52.7146 207.478 54.3979 207.478 56.4815C207.478 56.6332 207.478 56.7022 207.464 56.8264H201.807C201.959 58.3718 203.049 59.2411 204.318 59.2411C205.312 59.2411 205.974 58.841 206.567 58.2338L207.23 58.8272C206.512 59.6412 205.657 60.1656 204.291 60.1656ZM201.807 56.0399H206.402C206.291 54.7567 205.56 53.6114 204.125 53.6114C202.869 53.6114 201.959 54.6601 201.807 56.0399ZM213.654 60V50.3413H217.766C218.87 50.3413 219.739 50.6586 220.291 51.1968C220.705 51.6245 220.912 52.1488 220.912 52.7422V52.7698C220.912 54.0254 220.139 54.6739 219.38 55.0051C220.526 55.3362 221.45 56.0261 221.45 57.337V57.3646C221.45 59.0203 220.056 60 217.945 60H213.654ZM219.808 52.9215V52.8939C219.808 51.9419 219.049 51.321 217.669 51.321H214.73V54.6463H217.587C218.911 54.6463 219.808 54.0668 219.808 52.9215ZM220.346 57.2956V57.268C220.346 56.2193 219.477 55.6122 217.78 55.6122H214.73V59.0203H217.973C219.449 59.0203 220.346 58.3856 220.346 57.2956ZM225.557 60.1518C224.233 60.1518 222.894 59.4067 222.894 57.9303V57.9027C222.894 56.4125 224.136 55.5984 225.944 55.5984C226.868 55.5984 227.489 55.7226 228.138 55.9019V55.6536C228.138 54.3703 227.351 53.708 226.013 53.708C225.171 53.708 224.509 53.915 223.846 54.2324L223.529 53.3631C224.316 52.9905 225.074 52.7698 226.123 52.7698C227.13 52.7698 227.903 53.0319 228.427 53.5563C228.91 54.0392 229.159 54.7429 229.159 55.6398V60H228.138V58.9237C227.641 59.5723 226.827 60.1518 225.557 60.1518ZM225.764 59.3101C227.089 59.3101 228.151 58.5098 228.151 57.3783V56.6884C227.613 56.5367 226.937 56.3849 226.054 56.3849C224.716 56.3849 223.971 56.9644 223.971 57.8613V57.8889C223.971 58.7858 224.812 59.3101 225.764 59.3101ZM233.783 60.138C232.748 60.138 231.644 59.7378 230.83 59.0893L231.368 58.3304C232.141 58.9237 232.996 59.2411 233.838 59.2411C234.707 59.2411 235.314 58.8134 235.314 58.1097V58.0821C235.314 57.3783 234.472 57.0886 233.534 56.8264C232.43 56.4953 231.175 56.1365 231.175 54.8119V54.7843C231.175 53.5563 232.196 52.7422 233.603 52.7422C234.486 52.7422 235.438 53.0457 236.17 53.5287L235.687 54.329C235.024 53.9012 234.279 53.639 233.576 53.639C232.734 53.639 232.196 54.0806 232.196 54.6739V54.7015C232.196 55.3776 233.079 55.6398 234.031 55.9295C235.135 56.2607 236.321 56.6884 236.321 57.9717V57.9993C236.321 59.3515 235.204 60.138 233.783 60.138ZM241.414 60.1656C239.468 60.1656 237.854 58.6616 237.854 56.4539V56.4263C237.854 54.3703 239.289 52.7146 241.276 52.7146C243.387 52.7146 244.601 54.3979 244.601 56.4815C244.601 56.6332 244.601 56.7022 244.587 56.8264H238.93C239.082 58.3718 240.172 59.2411 241.441 59.2411C242.435 59.2411 243.097 58.841 243.69 58.2338L244.353 58.8272C243.635 59.6412 242.78 60.1656 241.414 60.1656ZM238.93 56.0399H243.525C243.414 54.7567 242.683 53.6114 241.248 53.6114C239.992 53.6114 239.082 54.6601 238.93 56.0399Z" fill="black"/>
<path d="M21.8415 6.13092C26.3563 4.71043 31.2154 4.8345 35.6523 6.48225C40.0892 8.13005 43.8513 11.2083 46.3444 15.2315L40.336 18.9551C38.6702 16.2669 36.156 14.2098 33.1914 13.1087C30.2268 12.0078 26.9802 11.9257 23.9637 12.8748C20.9469 13.824 18.3313 15.7502 16.5312 18.3504C14.7311 20.9506 13.8483 24.0765 14.0218 27.2343C14.1953 30.392 15.4159 33.4025 17.49 35.7898C19.5641 38.177 22.3742 39.8057 25.4765 40.4187C28.579 41.0316 31.7972 40.5934 34.6234 39.1743C37.4495 37.7551 39.7226 35.4353 41.084 32.5808L47.4647 35.6237C45.4274 39.8957 42.0256 43.3678 37.7959 45.4918C33.5662 47.6158 28.7499 48.2704 24.1067 47.3531C19.4634 46.4357 15.2572 43.9987 12.153 40.4258C9.04886 36.8529 7.22337 32.3475 6.96371 27.6217C6.70414 22.8959 8.02552 18.2184 10.7195 14.3271C13.4135 10.4356 17.3267 7.55147 21.8415 6.13092Z" fill="#1754EC"/>
<circle cx="28.2368" cy="26.5003" r="7.77421" fill="#1754EC"/>
</svg>
