<svg width="226" height="56" viewBox="0 0 226 56" fill="none" xmlns="http://www.w3.org/2000/svg">
<rect x="3" y="3" width="47" height="47" rx="11" fill="url(#paint0_linear_6_162)"/>
<path d="M37.0412 19.7544C35.5704 17.3809 33.351 15.5647 30.7334 14.5926C28.1158 13.6205 25.249 13.5477 22.5854 14.3858C19.9219 15.2238 17.6132 16.925 16.0238 19.2208C14.4344 21.5166 13.6548 24.2764 13.808 27.0645C13.9612 29.8526 15.0385 32.5102 16.8698 34.6181C18.7012 36.726 21.1823 38.164 23.9216 38.7052C26.661 39.2464 29.5026 38.86 31.9979 37.6069C34.4933 36.3538 36.5003 34.3055 37.7023 31.7851" stroke="white" stroke-width="5"/>
<circle cx="26.5" cy="26" r="5" fill="#8AB4FF"/>
<path d="M71.0276 29.3664C64.7385 29.3664 60.0675 24.5122 60.0675 18.3758V18.3147C60.0675 12.2393 64.6469 7.26304 71.2107 7.26304C75.2101 7.26304 77.683 8.60634 79.6369 10.5602L76.645 14.01C74.9659 12.5141 73.3478 11.5982 71.1802 11.5982C67.5777 11.5982 64.9827 14.5901 64.9827 18.2536V18.3147C64.9827 21.9782 67.5167 25.0312 71.1802 25.0312C73.6226 25.0312 75.1185 24.0848 76.7976 22.5278L79.7895 25.5502C77.5914 27.9009 75.1796 29.3664 71.0276 29.3664ZM83.0647 29V6.71351H87.7052V14.9565C88.7737 13.5826 90.1781 12.3309 92.4983 12.3309C96.0398 12.3309 98.0547 14.6206 98.0547 18.4063V29H93.4142V19.8717C93.4142 17.6736 92.4068 16.544 90.6055 16.544C88.8043 16.544 87.7052 17.6736 87.7052 19.8717V29H83.0647ZM102.086 29V12.6362H106.726V15.9334C107.673 13.7048 109.169 12.2088 111.947 12.3309V17.1851H111.703C108.619 17.1851 106.726 19.0169 106.726 22.9552V29H102.086ZM122.428 29.3664C117.391 29.3664 113.605 25.6418 113.605 20.9097V20.8486C113.605 16.1471 117.391 12.3309 122.489 12.3309C127.527 12.3309 131.312 16.0555 131.312 20.7876V20.8486C131.312 25.5502 127.527 29.3664 122.428 29.3664ZM122.489 25.367C125.146 25.367 126.733 23.3521 126.733 20.9097V20.8486C126.733 18.4368 124.993 16.3303 122.428 16.3303C119.772 16.3303 118.185 18.3452 118.185 20.7876V20.8486C118.185 23.2605 119.925 25.367 122.489 25.367ZM134.673 29V12.6362H139.313V14.9565C140.382 13.5826 141.786 12.3309 144.106 12.3309C147.648 12.3309 149.663 14.6206 149.663 18.4063V29H145.022V19.8717C145.022 17.6736 144.015 16.544 142.213 16.544C140.412 16.544 139.313 17.6736 139.313 19.8717V29H134.673ZM153.785 10.835V6.71351H158.67V10.835H153.785ZM153.908 29V12.6362H158.548V29H153.908ZM170.63 29.3664C165.715 29.3664 162.113 25.5502 162.113 20.9097V20.8486C162.113 16.1776 165.685 12.3309 170.691 12.3309C173.775 12.3309 175.668 13.3689 177.225 15.0786L174.385 18.1315C173.317 17.0325 172.34 16.3303 170.661 16.3303C168.341 16.3303 166.692 18.3452 166.692 20.7876V20.8486C166.692 23.3826 168.31 25.367 170.844 25.367C172.401 25.367 173.47 24.6953 174.599 23.6268L177.316 26.3745C175.729 28.1146 173.897 29.3664 170.63 29.3664ZM180.561 29V6.71351H185.202V29H180.561ZM197.314 29.3664C192.399 29.3664 188.766 25.9165 188.766 20.9097V20.8486C188.766 16.1776 192.094 12.3309 196.857 12.3309C202.321 12.3309 204.825 16.5745 204.825 21.215C204.825 21.5813 204.794 21.9782 204.764 22.4362H193.376C193.834 24.5427 195.3 25.6418 197.376 25.6418C198.933 25.6418 200.032 25.1533 201.344 23.9626L204 26.3134C202.443 28.2368 200.276 29.3664 197.314 29.3664ZM193.315 19.5359H200.306C200.032 17.4599 198.81 16.0555 196.857 16.0555C194.903 16.0555 193.681 17.4293 193.315 19.5359ZM214.023 29.3053C211.702 29.3053 209.199 28.5421 207.001 26.8324L208.985 23.7795C210.787 25.0922 212.588 25.7334 214.145 25.7334C215.488 25.7334 216.099 25.2449 216.099 24.5122V24.4511C216.099 23.4436 214.511 23.1383 212.71 22.5583C210.42 21.9172 207.825 20.8181 207.825 17.643V17.582C207.825 14.2543 210.512 12.392 213.809 12.392C215.885 12.392 218.114 13.0942 219.915 14.2848L218.144 17.4904C216.526 16.544 214.908 15.9639 213.717 15.9639C212.588 15.9639 212.008 16.4524 212.008 17.0935V17.1546C212.008 18.0094 213.565 18.5589 215.335 19.1085C217.625 19.8412 220.281 20.9708 220.281 23.9626V24.0237C220.281 27.6567 217.564 29.3053 214.023 29.3053Z" fill="black"/>
<path d="M65.8909 47.579C63.529 47.579 61.7868 45.7199 61.7868 43.3696V43.3463C61.7868 41.0311 63.529 39.1135 65.926 39.1135C67.411 39.1135 68.3113 39.628 69.1181 40.4114L68.4867 41.0896C67.7851 40.4348 67.0368 39.9671 65.9143 39.9671C64.1019 39.9671 62.7456 41.4403 62.7456 43.3229V43.3463C62.7456 45.2405 64.1019 46.7255 65.9143 46.7255C67.0368 46.7255 67.7735 46.2928 68.5569 45.5445L69.1649 46.1408C68.323 47.0061 67.3642 47.579 65.8909 47.579ZM73.3207 47.579C71.5084 47.579 70.1871 46.1525 70.1871 44.4454V44.422C70.1871 42.7032 71.5084 41.265 73.3441 41.265C75.1682 41.265 76.4895 42.6915 76.4895 44.3986V44.422C76.4895 46.1408 75.1448 47.579 73.3207 47.579ZM73.3441 46.7722C74.6537 46.7722 75.5657 45.7082 75.5657 44.4454V44.422C75.5657 43.1241 74.5953 42.0601 73.3207 42.0601C72.0112 42.0601 71.1108 43.1241 71.1108 44.3986V44.422C71.1108 45.7199 72.0696 46.7722 73.3441 46.7722ZM78.1204 47.4387V41.3936H79.0208V42.9721C79.4651 41.9665 80.342 41.2533 81.4879 41.2883V42.2588H81.4178C80.0965 42.2588 79.0208 43.206 79.0208 45.03V47.4387H78.1204ZM82.8592 49.3096V41.3936H83.7595V42.6096C84.2623 41.8964 84.9522 41.265 86.0747 41.265C87.5246 41.265 88.9628 42.4108 88.9628 44.3986V44.422C88.9628 46.3864 87.5363 47.5673 86.0747 47.5673C84.9522 47.5673 84.2272 46.971 83.7595 46.2811V49.3096H82.8592ZM85.911 46.7605C87.0803 46.7605 88.0391 45.8953 88.0391 44.4337V44.4103C88.0391 42.9721 87.0686 42.0718 85.911 42.0718C84.7885 42.0718 83.7244 43.0306 83.7244 44.3986V44.422C83.7244 45.8251 84.7885 46.7605 85.911 46.7605ZM93.3834 47.579C91.571 47.579 90.2497 46.1525 90.2497 44.4454V44.422C90.2497 42.7032 91.571 41.265 93.4068 41.265C95.2308 41.265 96.5521 42.6915 96.5521 44.3986V44.422C96.5521 46.1408 95.2074 47.579 93.3834 47.579ZM93.4068 46.7722C94.7163 46.7722 95.6284 45.7082 95.6284 44.4454V44.422C95.6284 43.1241 94.6579 42.0601 93.3834 42.0601C92.0738 42.0601 91.1734 43.1241 91.1734 44.3986V44.422C91.1734 45.7199 92.1322 46.7722 93.4068 46.7722ZM98.1831 47.4387V41.3936H99.0834V42.9721C99.5277 41.9665 100.405 41.2533 101.551 41.2883V42.2588H101.48C100.159 42.2588 99.0834 43.206 99.0834 45.03V47.4387H98.1831ZM104.426 47.5673C103.303 47.5673 102.169 46.9359 102.169 45.6848V45.6614C102.169 44.3986 103.221 43.7087 104.753 43.7087C105.536 43.7087 106.063 43.814 106.612 43.966V43.7555C106.612 42.6681 105.946 42.1068 104.811 42.1068C104.098 42.1068 103.537 42.2822 102.976 42.5512L102.707 41.8145C103.373 41.4988 104.016 41.3117 104.905 41.3117C105.759 41.3117 106.413 41.5339 106.858 41.9782C107.267 42.3875 107.477 42.9838 107.477 43.7438V47.4387H106.612V46.5267C106.191 47.0762 105.501 47.5673 104.426 47.5673ZM104.601 46.8541C105.723 46.8541 106.624 46.1759 106.624 45.2171V44.6325C106.168 44.5038 105.595 44.3752 104.847 44.3752C103.712 44.3752 103.081 44.8663 103.081 45.6263V45.6497C103.081 46.4098 103.794 46.8541 104.601 46.8541ZM111.362 47.544C110.38 47.544 109.655 47.0646 109.655 45.8368V42.1887H108.813V41.3936H109.655V39.5695H110.555V41.3936H112.473V42.1887H110.555V45.7199C110.555 46.4682 110.964 46.7255 111.572 46.7255C111.888 46.7255 112.134 46.667 112.449 46.515V47.2867C112.134 47.4621 111.795 47.544 111.362 47.544ZM116.538 47.579C114.889 47.579 113.521 46.3045 113.521 44.4337V44.4103C113.521 42.6681 114.737 41.265 116.421 41.265C118.21 41.265 119.239 42.6915 119.239 44.4571C119.239 44.5857 119.239 44.6442 119.227 44.7494H114.433C114.562 46.059 115.485 46.7956 116.561 46.7956C117.403 46.7956 117.964 46.4565 118.467 45.9421L119.028 46.4448C118.42 47.1347 117.695 47.579 116.538 47.579ZM114.433 44.0829H118.327C118.233 42.9955 117.613 42.025 116.397 42.025C115.333 42.025 114.562 42.9136 114.433 44.0829ZM124.472 47.4387V39.2538H125.396V44.1414L130.097 39.2538H131.301L127.781 42.8318L131.441 47.4387H130.284L127.138 43.4749L125.396 45.2405V47.4387H124.472ZM132.725 47.4387V41.3936H133.625V42.4459C134.034 41.7911 134.654 41.265 135.695 41.265C137.144 41.265 138.01 42.2471 138.01 43.6854V47.4387H137.109V43.9075C137.109 42.785 136.513 42.0834 135.437 42.0834C134.397 42.0834 133.625 42.8435 133.625 43.9777V47.4387H132.725ZM142.689 47.579C140.877 47.579 139.556 46.1525 139.556 44.4454V44.422C139.556 42.7032 140.877 41.265 142.713 41.265C144.537 41.265 145.858 42.6915 145.858 44.3986V44.422C145.858 46.1408 144.513 47.579 142.689 47.579ZM142.713 46.7722C144.022 46.7722 144.934 45.7082 144.934 44.4454V44.422C144.934 43.1241 143.964 42.0601 142.689 42.0601C141.38 42.0601 140.479 43.1241 140.479 44.3986V44.422C140.479 45.7199 141.438 46.7722 142.713 46.7722ZM148.794 47.4855L146.678 41.3936H147.636L149.227 46.2461L150.852 41.3702H151.6L153.237 46.2461L154.827 41.3936H155.763L153.635 47.4855H152.851L151.226 42.7149L149.589 47.4855H148.794ZM157.345 47.4387V38.903H158.246V47.4387H157.345ZM162.978 47.579C161.329 47.579 159.961 46.3045 159.961 44.4337V44.4103C159.961 42.6681 161.177 41.265 162.861 41.265C164.65 41.265 165.679 42.6915 165.679 44.4571C165.679 44.5857 165.679 44.6442 165.667 44.7494H160.873C161.001 46.059 161.925 46.7956 163.001 46.7956C163.843 46.7956 164.404 46.4565 164.907 45.9421L165.468 46.4448C164.86 47.1347 164.135 47.579 162.978 47.579ZM160.873 44.0829H164.766C164.673 42.9955 164.053 42.025 162.837 42.025C161.773 42.025 161.001 42.9136 160.873 44.0829ZM169.792 47.5673C168.342 47.5673 166.904 46.4215 166.904 44.4337V44.4103C166.904 42.4459 168.342 41.265 169.792 41.265C170.915 41.265 171.639 41.8613 172.107 42.5512V38.903H173.007V47.4387H172.107V46.2227C171.604 46.9476 170.915 47.5673 169.792 47.5673ZM169.956 46.7605C171.078 46.7605 172.142 45.8134 172.142 44.422V44.3986C172.142 43.0072 171.078 42.0718 169.956 42.0718C168.786 42.0718 167.828 42.937 167.828 44.3986V44.422C167.828 45.8602 168.798 46.7605 169.956 46.7605ZM177.697 49.3329C176.68 49.3329 175.756 49.0523 174.949 48.4911L175.358 47.7895C176.06 48.2923 176.808 48.5612 177.685 48.5612C179.03 48.5612 179.884 47.8246 179.884 46.4098V45.6965C179.357 46.3981 178.621 46.971 177.51 46.971C176.06 46.971 174.669 45.8719 174.669 44.1414V44.118C174.669 42.3524 176.06 41.265 177.51 41.265C178.644 41.265 179.369 41.8262 179.872 42.481V41.3936H180.772V46.3864C180.772 47.3218 180.503 48.0234 180 48.5261C179.451 49.0757 178.668 49.3329 177.697 49.3329ZM177.685 46.1759C178.831 46.1759 179.907 45.3457 179.907 44.1297V44.1063C179.907 42.8669 178.831 42.0601 177.685 42.0601C176.528 42.0601 175.592 42.8552 175.592 44.0946V44.118C175.592 45.334 176.563 46.1759 177.685 46.1759ZM185.427 47.579C183.778 47.579 182.41 46.3045 182.41 44.4337V44.4103C182.41 42.6681 183.626 41.265 185.31 41.265C187.099 41.265 188.128 42.6915 188.128 44.4571C188.128 44.5857 188.128 44.6442 188.116 44.7494H183.322C183.451 46.059 184.374 46.7956 185.45 46.7956C186.292 46.7956 186.853 46.4565 187.356 45.9421L187.917 46.4448C187.309 47.1347 186.584 47.579 185.427 47.579ZM183.322 44.0829H187.216C187.122 42.9955 186.502 42.025 185.286 42.025C184.222 42.025 183.451 42.9136 183.322 44.0829ZM193.361 47.4387V39.2538H196.846C197.781 39.2538 198.518 39.5227 198.986 39.9788C199.336 40.3412 199.512 40.7856 199.512 41.2883V41.3117C199.512 42.3758 198.857 42.9253 198.214 43.206C199.184 43.4866 199.968 44.0712 199.968 45.182V45.2054C199.968 46.6085 198.787 47.4387 196.998 47.4387H193.361ZM198.576 41.4403V41.417C198.576 40.6102 197.933 40.084 196.764 40.084H194.273V42.9019H196.694C197.816 42.9019 198.576 42.4108 198.576 41.4403ZM199.032 45.1469V45.1236C199.032 44.2349 198.296 43.7204 196.857 43.7204H194.273V46.6085H197.021C198.272 46.6085 199.032 46.0707 199.032 45.1469ZM203.448 47.5673C202.326 47.5673 201.192 46.9359 201.192 45.6848V45.6614C201.192 44.3986 202.244 43.7087 203.776 43.7087C204.559 43.7087 205.085 43.814 205.635 43.966V43.7555C205.635 42.6681 204.968 42.1068 203.834 42.1068C203.121 42.1068 202.56 42.2822 201.999 42.5512L201.73 41.8145C202.396 41.4988 203.039 41.3117 203.928 41.3117C204.781 41.3117 205.436 41.5339 205.881 41.9782C206.29 42.3875 206.5 42.9838 206.5 43.7438V47.4387H205.635V46.5267C205.214 47.0762 204.524 47.5673 203.448 47.5673ZM203.624 46.8541C204.746 46.8541 205.647 46.1759 205.647 45.2171V44.6325C205.191 44.5038 204.618 44.3752 203.869 44.3752C202.735 44.3752 202.104 44.8663 202.104 45.6263V45.6497C202.104 46.4098 202.817 46.8541 203.624 46.8541ZM210.418 47.5556C209.542 47.5556 208.606 47.2166 207.916 46.667L208.372 46.0239C209.027 46.5267 209.752 46.7956 210.465 46.7956C211.202 46.7956 211.716 46.4331 211.716 45.8368V45.8134C211.716 45.2171 211.003 44.9716 210.208 44.7494C209.273 44.4688 208.209 44.1648 208.209 43.0423V43.0189C208.209 41.9782 209.074 41.2883 210.266 41.2883C211.015 41.2883 211.822 41.5456 212.441 41.9548L212.032 42.633C211.471 42.2705 210.839 42.0484 210.243 42.0484C209.53 42.0484 209.074 42.4225 209.074 42.9253V42.9487C209.074 43.5217 209.822 43.7438 210.629 43.9894C211.564 44.27 212.57 44.6325 212.57 45.7199V45.7433C212.57 46.8892 211.623 47.5556 210.418 47.5556ZM216.885 47.579C215.236 47.579 213.868 46.3045 213.868 44.4337V44.4103C213.868 42.6681 215.084 41.265 216.768 41.265C218.557 41.265 219.586 42.6915 219.586 44.4571C219.586 44.5857 219.586 44.6442 219.574 44.7494H214.78C214.909 46.059 215.833 46.7956 216.909 46.7956C217.75 46.7956 218.312 46.4565 218.814 45.9421L219.376 46.4448C218.768 47.1347 218.043 47.579 216.885 47.579ZM214.78 44.0829H218.674C218.581 42.9955 217.961 42.025 216.745 42.025C215.681 42.025 214.909 42.9136 214.78 44.0829Z" fill="black"/>
<defs>
<linearGradient id="paint0_linear_6_162" x1="11.225" y1="13.575" x2="34.725" y2="44.125" gradientUnits="userSpaceOnUse">
<stop stop-color="#2677FF"/>
<stop offset="1" stop-color="#1653EC"/>
</linearGradient>
</defs>
</svg>
